<?xml version="1.0" encoding="UTF-8"?>
<svg width="151px" height="137px" viewBox="0 0 151 137" version="1.1" xmlns="http://www.w3.org/2000/svg" xmlns:xlink="http://www.w3.org/1999/xlink">
    <!-- Generator: Sketch 43.2 (39069) - http://www.bohemiancoding.com/sketch -->
    <title>Qtum_logo</title>
    <desc>Created with Sketch.</desc>
    <defs>
        <filter x="-9.8%" y="-10.9%" width="125.6%" height="128.6%" filterUnits="objectBoundingBox" id="filter-1">
            <feOffset dx="4" dy="4" in="SourceAlpha" result="shadowOffsetOuter1"></feOffset>
            <feGaussianBlur stdDeviation="5" in="shadowOffsetOuter1" result="shadowBlurOuter1"></feGaussianBlur>
            <feColorMatrix values="0 0 0 0 0.8   0 0 0 0 0   0 0 0 0 0.8  0 0 0 0.5 0" type="matrix" in="shadowBlurOuter1" result="shadowMatrixOuter1"></feColorMatrix>
            <feMerge>
                <feMergeNode in="shadowMatrixOuter1"></feMergeNode>
                <feMergeNode in="SourceGraphic"></feMergeNode>
            </feMerge>
        </filter>
    </defs>
    <g id="Page-1" stroke="none" stroke-width="1" fill="none" fill-rule="evenodd">
        <g id="Qtum_logo" filter="url(#filter-1)" transform="translate(5.000000, 5.000000)" fill-rule="nonzero" fill="#FFFFFF">
            <path d="M125.83175,101.2679 C124.93775,101.2679 124.13635,101.4319 123.44585,101.6969 C122.68285,101.9909 122.00255,102.3869 121.43955,102.8914 L109.45905,92.5336 L118.67145,64.0377 L118.86745,64.0377 L118.99845,64.0377 C120.20285,64.0377 121.28945,63.5957 122.24515,62.7023 C123.16515,61.8183 123.62955,60.6863 123.62955,59.3136 C123.62955,58.0143 123.16455,56.9016 122.24515,55.9724 C121.28915,55.0884 120.20615,54.6371 118.99845,54.6371 L118.86745,54.6371 L118.67145,54.6371 L110.60455,29.721 C111.23655,29.351 111.76315,28.801 112.17875,28.0977 C112.54875,27.4657 112.76475,26.7002 112.80075,25.8067 C112.80075,24.5074 112.33575,23.3946 111.41635,22.4654 C110.48735,21.5454 109.37415,21.081 108.07515,21.081 C107.50215,21.111 106.95255,21.212 106.45185,21.376 C105.90185,21.572 105.43725,21.864 105.06745,22.234 L83.77925,6.8166 C83.87925,6.5546 83.97525,6.2926 84.07425,6.0046 C84.09425,5.7426 84.10425,5.4086 84.10425,5.0486 C84.10425,3.7493 83.63925,2.6365 82.71985,1.7074 C81.76385,0.7874 80.68085,0.3229 79.47315,0.3229 C78.32765,0.3929 77.33605,0.7289 76.51455,1.3244 C75.62155,1.9924 75.07125,2.8627 74.89125,3.9034 L49.06825,3.9034 C48.83925,2.9604 48.29225,2.1132 47.44485,1.3735 C46.58385,0.6795 45.61865,0.3229 44.58115,0.3229 C43.24585,0.3229 42.12325,0.7879 41.23995,1.7074 C40.30995,2.6364 39.85555,3.7496 39.85555,5.0486 C39.85555,5.4056 39.87555,5.7296 39.95555,6.0046 C40.02555,6.2986 40.08655,6.5646 40.18455,6.8166 L18.89615,22.234 C18.44215,21.864 18.00115,21.566 17.55955,21.376 C17.01055,21.212 16.44965,21.114 15.88875,21.081 C14.55215,21.081 13.43055,21.546 12.54745,22.4654 C11.61645,23.3954 11.16345,24.5077 11.16345,25.8067 C11.16345,26.6997 11.36645,27.466 11.78345,28.0977 C12.15345,28.8017 12.69045,29.3512 13.35865,29.721 L13.44865,29.721 L5.38203,54.4937 L5.23803,54.4937 L5.04823,54.4937 C3.7116,54.4937 2.59,54.9587 1.70699,55.8781 C0.77619,56.8081 0.32291,57.9171 0.32291,59.2194 C0.32291,60.5547 0.77651,61.6773 1.70699,62.5606 C2.58999,63.4906 3.7116,63.945 5.04823,63.945 L5.14323,63.945 L5.28723,63.945 L13.44935,88.9567 C12.70935,89.3757 12.14875,89.9227 11.77855,90.58 C11.36055,91.248 11.15855,92.0233 11.15855,92.871 C11.15855,94.2063 11.61155,95.3289 12.54265,96.2122 C13.42565,97.1422 14.54725,97.5966 15.88385,97.5966 C16.44485,97.5966 17.00545,97.4966 17.55465,97.3026 C17.99665,97.1386 18.43765,96.8966 18.89125,96.5396 L40.17975,111.8614 C40.07975,112.1564 40.01575,112.4574 39.95075,112.7224 C39.88075,113.0164 39.85075,113.3444 39.85075,113.6284 C39.85075,114.9539 40.30575,116.0732 41.23515,116.9697 C42.11915,117.8897 43.24135,118.3541 44.57635,118.3541 C45.61385,118.3541 46.58265,118.0071 47.44005,117.3526 C48.28805,116.7436 48.83755,115.8864 49.06345,114.7736 L74.88645,114.7736 C75.05045,115.8831 75.61245,116.7438 76.50975,117.3526 C77.33475,118.0076 78.32285,118.3541 79.46835,118.3541 C80.67275,118.3541 81.75935,117.8891 82.71505,116.9697 C83.63505,116.0767 84.09945,114.9536 84.09945,113.6284 C84.09945,113.3344 84.07945,113.0324 84.06945,112.7224 C83.96945,112.4604 83.87345,112.1724 83.77445,111.8614 L108.07005,94.3439 L119.95495,104.6062 C119.62795,105.0842 119.39495,105.6339 119.23795,106.2295 C119.04195,106.8975 118.97595,107.5288 119.00895,108.0917 C118.97895,109.9769 119.64095,111.5524 121.01515,112.8652 C122.31455,114.1907 123.92805,114.8714 125.83605,114.8714 C127.67545,114.8714 129.27285,114.1904 130.60915,112.8652 C131.90855,111.5528 132.57945,109.9785 132.61545,108.0917 C132.58545,106.2197 131.91145,104.5957 130.60915,103.2234 C129.27385,101.9241 127.67345,101.2663 125.83605,101.2663 L125.83175,101.2679 Z M108.88695,31.818 L116.47635,55.3975 C115.92635,55.7245 115.49735,56.1245 115.18685,56.5921 C114.82985,57.0471 114.57785,57.5711 114.42385,58.1663 L110.50985,58.1663 C110.31385,57.3453 109.94985,56.6379 109.41015,56.0652 C108.80115,55.5052 108.13375,55.0506 107.40395,54.7298 L108.88695,31.818 Z M106.69085,30.2896 L105.06755,54.633 L104.93655,54.633 C104.83655,54.663 104.77255,54.703 104.74055,54.733 L95.05105,36.3086 C95.51605,35.9616 95.92205,35.4476 96.24555,34.7802 C96.50755,34.1842 96.63855,33.5267 96.67455,32.823 C96.67455,32.803 96.65455,32.692 96.64455,32.489 C96.57455,32.358 96.54455,32.195 96.61455,32.011 L104.44285,28.6697 C104.70485,29.0267 105.03885,29.3507 105.49345,29.6257 C105.78845,29.9827 106.18445,30.1757 106.63895,30.1987 L106.69085,30.2896 Z M80.29515,54.7285 C80.22515,54.7585 80.13115,54.7485 79.96115,54.6985 C79.76515,54.6785 79.60415,54.6685 79.48315,54.6685 C79.25415,54.6685 79.02815,54.6885 78.81515,54.6985 C78.58615,54.7685 78.35015,54.8295 78.09815,54.8295 L65.21035,32.3955 C65.43935,32.2315 65.63935,31.9535 65.83235,31.6335 C65.99635,31.3715 66.16635,31.0605 66.35635,30.7725 L87.21515,33.3973 C87.23515,34.0653 87.44415,34.6279 87.78815,35.0697 C88.05015,35.6197 88.45615,36.0617 88.93365,36.4051 L80.29515,54.7285 Z M91.03495,37.4496 C91.13495,37.4496 91.29695,37.4696 91.51295,37.4796 C91.61295,37.5496 91.74195,37.5796 91.94195,37.5096 C92.10595,37.5396 92.27595,37.5296 92.46595,37.4796 C92.62995,37.4596 92.82295,37.3796 93.08795,37.2836 L102.77745,55.7559 C102.35845,56.1129 102.05045,56.4819 101.87045,56.8555 C101.57545,57.2745 101.41545,57.7035 101.39245,58.145 L84.01795,58.145 C83.82195,57.703 83.62495,57.274 83.44495,56.8555 C83.18295,56.4855 82.85895,56.1155 82.48895,55.7559 L91.03495,37.4496 Z M76.14255,55.9696 C75.81555,56.2966 75.58255,56.6246 75.42555,56.9711 C75.22955,57.3281 75.05555,57.7241 74.90155,58.1657 L49.07855,58.1657 C49.00855,57.7237 48.84955,57.3307 48.60055,56.9711 C48.33855,56.6241 48.08655,56.2901 47.83755,55.9696 L60.82085,33.5356 C60.98485,33.5356 61.15485,33.5556 61.34485,33.5656 C61.50885,33.6356 61.72785,33.6656 62.01285,33.5956 C62.24185,33.6256 62.44185,33.6156 62.63485,33.5656 C62.79885,33.5456 62.99185,33.5356 63.25685,33.5356 L76.14255,55.9696 Z M45.88065,54.8241 C45.58565,54.8041 45.36665,54.7541 45.21265,54.6931 C45.01665,54.6731 44.80665,54.6631 44.59065,54.6631 C44.39465,54.6631 44.23365,54.6831 44.11265,54.6931 C43.91665,54.7631 43.76565,54.7931 43.68365,54.7231 L35.04435,36.3939 C35.48635,36.0469 35.86535,35.6049 36.18985,35.0586 C36.45185,34.6166 36.63185,34.0571 36.76285,33.3862 L57.62165,30.6174 C57.78565,31.0724 57.95565,31.4064 58.14565,31.6189 C58.27665,31.9459 58.47965,32.2049 58.76765,32.3819 L45.88065,54.8241 Z M41.58465,55.7801 C41.16565,56.0741 40.84465,56.4121 40.62865,56.7815 C40.30165,57.2335 40.12765,57.7015 40.10465,58.166 L22.82575,58.166 C22.63575,57.76 22.43175,57.344 22.25275,56.9256 C21.99075,56.5556 21.66775,56.1986 21.29775,55.875 L30.98725,37.4505 C31.15125,37.4505 31.32125,37.4705 31.51125,37.4805 C31.67525,37.5505 31.86825,37.5805 32.13325,37.5105 C32.26425,37.5405 32.42825,37.5305 32.61125,37.4805 C32.74225,37.4605 32.90625,37.4505 33.08925,37.4505 L41.58465,55.7801 Z M22.82615,60.5057 L39.96165,60.5057 C40.09265,61.0557 40.30865,61.5203 40.62965,61.8901 C40.85865,62.3091 41.16665,62.6431 41.58565,62.8916 L32.94635,81.2205 L32.61235,81.2205 L32.13435,81.2205 L31.51235,81.2205 C31.31635,81.2505 31.14235,81.3205 30.98835,81.3515 L21.29885,62.7837 C21.66885,62.5217 21.99085,62.1517 22.25385,61.7331 C22.43385,61.3631 22.63585,60.9441 22.82685,60.4927 L22.82615,60.5057 Z M43.68485,63.9422 C43.78485,63.9422 43.91385,63.9622 44.11385,63.9722 C44.24485,64.0722 44.40785,64.1032 44.59185,64.0022 C44.82085,64.0722 45.03385,64.0322 45.25985,63.9722 C45.48885,63.9522 45.68885,63.9022 45.88185,63.8412 L58.76925,86.1796 C58.47525,86.4416 58.26825,86.7166 58.14725,86.9916 C57.95125,87.3486 57.77725,87.6496 57.62325,87.8976 L36.76455,85.2728 C36.63355,84.7128 36.43755,84.1503 36.19155,83.6037 C35.86455,83.1387 35.48755,82.6837 35.04605,82.2684 L43.68485,63.9422 Z M47.83745,62.7018 C48.09945,62.4398 48.33845,62.0798 48.60045,61.7003 C48.86245,61.3533 49.00645,60.9603 49.07845,60.5057 L74.90145,60.5057 C74.92145,60.9577 75.09745,61.3537 75.37945,61.7003 C75.60845,62.0833 75.85745,62.4273 76.14245,62.7018 L63.25495,85.0405 C63.05895,85.0705 62.86195,85.0605 62.68195,85.0105 C62.45295,84.9405 62.22995,84.9105 62.01395,84.9105 C61.71995,84.9105 61.49995,84.9405 61.34595,85.0105 C61.14995,85.0805 60.93995,85.1415 60.72395,85.1415 L60.72395,85.0415 L47.83745,62.7018 Z M78.09975,63.8473 C78.36175,63.9173 78.57775,63.9783 78.76775,63.9783 C78.93175,64.0783 79.12475,64.1093 79.38975,64.0083 C79.55375,64.0783 79.77275,64.0383 79.96275,63.9783 C80.09375,63.9583 80.25775,63.9483 80.44075,63.9483 L80.30975,63.9483 L88.94945,82.2774 C88.49445,82.6964 88.12445,83.1484 87.84975,83.6128 C87.55475,84.1628 87.39475,84.7223 87.37175,85.2819 L66.36965,87.9067 C66.17365,87.6447 66.02265,87.3567 65.94065,86.9997 C65.74465,86.7377 65.54765,86.4497 65.36765,86.1877 L78.09975,63.8473 Z M82.39535,62.8913 C82.74235,62.6293 83.06335,62.3053 83.35135,61.8898 C83.61335,61.5198 83.82935,61.0548 84.01935,60.5054 L101.39385,60.5054 C101.55785,60.9574 101.74085,61.3764 101.96685,61.7458 C102.13085,62.1648 102.46785,62.4858 102.92285,62.7018 L92.99435,81.3651 C92.79835,81.2951 92.62435,81.2651 92.47035,81.2341 L91.94635,81.2341 L91.51735,81.2341 L91.03935,81.2341 L82.39535,62.8913 Z M82.49535,8.6202 L103.68835,24.0853 C103.58835,24.3473 103.52435,24.6223 103.49235,24.8973 C103.39235,25.2543 103.36135,25.5553 103.36135,25.8043 C103.33135,26.0003 103.34135,26.1313 103.39135,26.1873 C103.46135,26.3183 103.49135,26.4493 103.49135,26.6163 L103.49135,26.4853 L95.61555,29.9699 C95.16055,29.4689 94.63755,29.0139 94.04135,28.6346 C93.37335,28.2876 92.67005,28.1106 91.94015,28.1106 L91.51115,28.1106 C91.28215,28.1406 91.11815,28.2106 91.03315,28.2416 L91.13315,28.2416 L82.39795,8.7669 C82.39795,8.7969 82.39795,8.7869 82.39795,8.7369 C82.39795,8.6669 82.41795,8.6369 82.49795,8.6369 L82.49535,8.6202 Z M77.67455,9.4322 C77.93655,9.5632 78.21155,9.6612 78.53555,9.6612 C78.79755,9.7312 79.07255,9.7612 79.39655,9.7612 C79.52755,9.8312 79.69055,9.7912 79.87455,9.7312 C79.97455,9.7112 80.10355,9.7012 80.30355,9.7012 L89.08625,29.1758 C88.66725,29.4048 88.35925,29.6898 88.17925,30.0368 C87.91725,30.3938 87.71425,30.7638 87.55725,31.1332 L66.60325,28.3644 C66.57325,27.9584 66.47225,27.5394 66.30825,27.124 C66.11225,26.718 65.90225,26.361 65.68925,26.0734 L77.67455,9.4322 Z M49.08305,6.2347 L74.90605,6.2347 C74.92605,6.5617 75.03705,6.8667 75.24005,7.1417 C75.40405,7.4987 75.58705,7.7967 75.81305,8.0487 L63.59365,24.516 C63.36465,24.496 63.12865,24.446 62.87665,24.385 C62.54965,24.365 62.26765,24.355 62.01565,24.355 C61.65865,24.355 61.33465,24.375 61.05965,24.385 C60.76465,24.455 60.49965,24.549 60.24765,24.679 L60.24765,24.548 L48.17155,8.0804 C48.33555,7.8184 48.55455,7.5434 48.74455,7.2194 C48.90855,6.9904 49.00655,6.6824 49.07855,6.2634 L49.08305,6.2347 Z M44.59625,9.7667 C44.85825,9.7667 45.14625,9.7467 45.50325,9.6667 C45.76525,9.6467 46.05325,9.5667 46.31525,9.4377 L58.43875,26.0484 C58.11175,26.3424 57.87875,26.6934 57.72175,27.0989 C57.52575,27.5179 57.42675,27.9339 57.38775,28.3393 L36.43335,31.1082 C36.23735,30.7382 36.04035,30.3682 35.86035,30.0118 C35.56535,29.6648 35.30035,29.3798 35.04835,29.1508 L43.78325,9.6761 C43.80325,9.6761 43.91425,9.6961 44.11725,9.7061 C44.24825,9.8061 44.41225,9.8371 44.59525,9.7361 L44.59625,9.7667 Z M41.58855,8.6212 L41.58855,8.7212 C41.58855,8.7912 41.61855,8.8212 41.71955,8.7512 L32.93695,28.2256 C32.74095,28.1556 32.60995,28.1256 32.55395,28.0946 L32.12495,28.0946 C31.32595,28.0946 30.62275,28.2586 30.02375,28.6186 C29.35575,29.0016 28.81935,29.4536 28.44955,29.9539 L20.47845,26.4694 C20.53845,26.4494 20.58645,26.3384 20.62245,26.1354 L20.62245,25.7064 C20.58245,25.4444 20.53245,25.1204 20.47845,24.7994 C20.38845,24.5374 20.31145,24.3114 20.28845,24.0824 L41.58855,8.6212 Z M19.58425,28.6686 L27.55525,32.0099 C27.45525,32.2059 27.42425,32.3669 27.42425,32.4879 L27.42425,32.9659 C27.39425,33.6109 27.52425,34.2193 27.85325,34.779 C28.11525,35.447 28.49825,35.9605 29.04775,36.3074 L19.35815,54.7318 L19.21415,54.7318 L19.11415,54.7318 L17.39595,30.1977 C17.83795,30.0667 18.26695,29.8507 18.68475,29.5297 C19.05475,29.2677 19.36475,28.9927 19.59175,28.6727 L19.58425,28.6686 Z M15.19295,86.8538 L7.50815,63.274 C7.97315,63.012 8.41515,62.593 8.79695,62.0794 C9.10795,61.6734 9.36995,61.1494 9.56095,60.5052 L13.71355,60.5052 C13.92955,61.2672 14.31055,61.9485 14.85905,62.5114 C15.36005,63.1204 15.98065,63.5718 16.72065,63.8467 L16.81065,63.8467 L15.19295,86.8538 Z M13.71325,58.1667 L9.56055,58.1667 C9.49055,57.6067 9.26255,57.0441 8.89255,56.4976 C8.43855,56.0326 8.00955,55.6266 7.60375,55.303 L15.19315,31.8188 L16.81615,54.8255 C16.01615,55.1525 15.36035,55.6015 14.85895,56.1608 C14.30995,56.7698 13.92795,57.4372 13.71345,58.167 L13.71325,58.1667 Z M17.38855,88.4764 L19.10685,63.9423 C19.06685,63.9423 19.10685,63.9423 19.19685,63.9423 L19.34085,63.9423 L29.03035,82.3667 C28.48035,82.8217 28.08735,83.3317 27.83575,83.8951 C27.50875,84.5401 27.37075,85.1944 27.40675,85.8523 L27.40675,86.2353 C27.40675,86.3663 27.43675,86.4973 27.53775,86.6643 L19.56655,90.0056 C19.24555,89.6356 18.92255,89.3116 18.61155,89.0496 C18.25355,88.8856 17.83555,88.6666 17.37045,88.4766 L17.38855,88.4764 Z M41.58855,110.0513 L20.30025,94.7295 C20.32025,94.4675 20.39025,94.2055 20.49025,93.9175 C20.55025,93.6555 20.59825,93.3215 20.63425,92.9615 L20.63425,92.5325 C20.59425,92.4015 20.54425,92.2375 20.49025,92.0545 L20.49025,92.1855 L28.36615,88.7009 C28.77215,89.2509 29.29615,89.6929 29.94045,90.0363 C30.57245,90.3933 31.27575,90.5603 32.04155,90.5603 L32.51955,90.5603 C32.61955,90.5603 32.74855,90.5303 32.94855,90.4293 L41.73115,109.9036 C41.63115,110.0036 41.60015,110.0346 41.60015,110.0346 L41.58855,110.0513 Z M46.31415,109.2393 C46.05215,109.2193 45.77715,109.1393 45.50215,109.0103 C45.14515,108.9903 44.84715,108.9403 44.59515,108.9103 C44.39915,108.9103 44.23815,108.9303 44.11715,108.9403 C43.92115,109.0103 43.77015,109.0403 43.68815,108.9703 L43.78815,108.9703 L35.05325,89.496 C35.31525,89.267 35.57725,88.995 35.86525,88.635 C36.02925,88.34 36.24825,87.954 36.43825,87.5386 L36.53825,87.5386 L57.39705,90.1634 C57.41705,90.6414 57.52805,91.0834 57.73105,91.4529 C57.89505,91.8719 58.12405,92.2519 58.44805,92.5984 L56.34685,95.3672 L46.31415,109.2393 Z M74.90535,112.4369 L49.08235,112.4369 C49.01235,112.1749 48.91835,111.8509 48.74835,111.4809 C48.55235,111.1239 48.35535,110.8489 48.17535,110.6199 L60.25145,93.9137 C60.51345,94.1097 60.77545,94.2077 61.06345,94.2077 C61.32545,94.2777 61.65945,94.3077 62.01945,94.2377 C62.28145,94.2677 62.56945,94.2577 62.92645,94.2077 C63.18845,94.2077 63.47645,94.1077 63.83345,93.9137 L63.73345,93.9137 L75.80955,110.6199 C75.58055,110.9669 75.39055,111.2649 75.23655,111.5259 C75.04055,111.8729 74.94155,112.1709 74.90255,112.4329 L74.90535,112.4369 Z M80.29895,109.0001 C80.10295,109.0301 79.95195,109.0201 79.86995,108.9701 C79.67395,108.9501 79.51295,108.9401 79.39195,108.9401 C79.06495,108.9701 78.78295,109.0101 78.53095,109.0401 C78.20395,109.1711 77.92195,109.2691 77.66995,109.2691 L65.54605,92.6585 C65.80805,92.3115 66.08305,91.9315 66.30905,91.513 C66.47305,91.143 66.57105,90.701 66.60405,90.2235 L87.55805,87.5987 C87.72205,88.0177 87.91505,88.3747 88.18005,88.6493 C88.40905,89.0063 88.65805,89.3033 88.94305,89.5563 L80.54205,108.3149 L80.29895,109.0001 Z M82.49505,110.0507 L82.39505,110.0507 L82.39505,109.9197 L82.62405,109.3467 L91.12035,90.4451 C91.14035,90.5451 91.28435,90.5761 91.50335,90.5761 L91.93235,90.5761 C92.65835,90.5761 93.36585,90.4121 94.03345,90.0981 C94.62945,89.8361 95.15605,89.4171 95.60775,88.8086 L95.60775,88.7086 L105.77445,93.1001 L82.49505,110.0507 Z M96.57615,86.662 C96.54615,86.498 96.55615,86.368 96.60615,86.233 C96.62615,86.163 96.63615,86.037 96.63615,85.85 C96.60615,85.156 96.47215,84.5147 96.20715,83.942 C95.88015,83.382 95.48015,82.8456 95.01255,82.3677 L104.84515,63.8481 L104.97615,63.8481 L105.00615,63.8481 L106.77345,91.1504 L96.57615,86.662 Z M107.41115,63.7031 C108.13815,63.4411 108.79555,63.0351 109.36835,62.4627 C109.83335,61.9617 110.18035,61.3041 110.36985,60.5055 L114.42715,60.5055 C114.59115,61.1505 114.83315,61.6739 115.19015,62.0797 C115.48415,62.5937 115.93015,62.9997 116.47965,63.2743 L108.89025,86.8541 L107.41115,63.7031 Z" id="path6171"></path>
        </g>
    </g>
</svg>